<?xml version="1.0" standalone="no"?>
<!DOCTYPE svg PUBLIC "-//W3C//DTD SVG 20010904//EN"
 "http://www.w3.org/TR/2001/REC-SVG-20010904/DTD/svg10.dtd">
<svg version="1.0" xmlns="http://www.w3.org/2000/svg"
 width="692.000000pt" height="692.000000pt" viewBox="0 0 692.000000 692.000000"
 preserveAspectRatio="xMidYMid meet">
<metadata>
Created by potrace 1.11, written by Peter Selinger 2001-2013
</metadata>
<g transform="translate(0.000000,692.000000) scale(0.100000,-0.100000)"
fill="#000000" stroke="none">
<path d="M3457 6004 c-1 -1 -40 -5 -87 -8 -159 -12 -418 -64 -570 -116 -114
-39 -247 -95 -366 -155 -182 -93 -288 -162 -459 -297 -107 -85 -336 -315 -385
-388 -8 -12 -25 -34 -38 -48 -12 -15 -39 -52 -60 -82 -20 -30 -40 -56 -44 -58
-5 -2 -8 -8 -8 -14 0 -5 -10 -24 -22 -41 -90 -123 -256 -501 -304 -687 -13
-51 -26 -108 -30 -125 -2 -11 -6 -31 -9 -45 -9 -42 -14 -73 -20 -115 -4 -22
-8 -51 -10 -65 -19 -116 -25 -444 -11 -570 4 -36 9 -85 11 -110 2 -25 9 -65
15 -90 5 -25 12 -56 14 -70 3 -14 8 -36 11 -50 3 -14 7 -37 10 -53 3 -15 12
-46 19 -70 8 -23 20 -62 26 -87 46 -178 243 -581 340 -697 5 -7 10 -15 10 -18
0 -15 194 -246 267 -320 140 -140 282 -257 421 -348 53 -35 104 -67 112 -70
16 -8 66 -37 105 -63 14 -9 25 -13 25 -9 0 3 12 -2 27 -13 24 -16 49 -29 73
-37 3 -1 25 -11 50 -23 25 -12 53 -22 62 -22 9 0 19 -4 23 -9 6 -11 183 -71
295 -100 88 -23 122 -30 215 -46 17 -3 39 -7 50 -9 22 -4 116 -15 191 -22 62
-5 362 -6 389 0 11 2 56 7 99 11 43 4 88 9 100 11 12 3 36 7 55 10 36 5 197
40 224 49 9 3 25 8 35 12 9 3 26 8 37 10 65 12 379 138 413 165 6 6 12 7 12 2
0 -5 4 -4 8 2 4 5 23 18 42 27 334 167 710 509 930 848 30 46 59 87 65 91 5 4
6 8 1 8 -5 0 -2 8 6 18 23 25 120 215 157 307 18 44 36 89 41 100 45 108 114
377 135 530 24 177 32 379 20 535 -9 121 -20 219 -30 270 -3 14 -8 41 -11 60
-43 247 -178 603 -309 815 -14 22 -28 47 -32 55 -3 8 -9 17 -13 20 -3 3 -21
30 -40 60 -19 30 -37 57 -40 60 -3 3 -19 23 -36 45 -16 22 -33 45 -39 52 -5 7
-14 18 -20 25 -42 56 -173 195 -251 269 -98 92 -330 269 -352 269 -6 0 -12 4
-14 8 -4 10 -105 72 -118 72 -6 0 -10 5 -10 10 0 6 -9 10 -19 10 -11 0 -21 3
-23 8 -3 8 -95 54 -198 100 -64 29 -289 108 -326 115 -10 2 -26 7 -34 10 -8 3
-51 13 -95 22 -44 9 -87 18 -95 20 -38 8 -172 26 -240 31 -71 6 -368 12 -373
8z"/>
</g>
</svg>
